PathFileType	4	(X/Y/Z)	51_2_73_p1_0-613.trc
DataRate	CameraRate	NumFrames	NumMarkers	Units	OrigDataRate	OrigDataStartFrame	OrigNumFrames
54.0	54.0	6	27	m	54.0	230	614
Frame#	Time	RHip			RKnee			RAnkle			RBigToe			RSmallToe			RHeel			LHip			LKnee			LAnkle			LBigToe			LSmallToe			LHeel			Neck			Head			Nose			RShoulder			RElbow			RWrist			RThumb			RIndex			RPinky			LShoulder			LElbow			LWrist			LThumb			LIndex			LPinky			
		X1	Y1	Z1	X2	Y2	Z2	X3	Y3	Z3	X4	Y4	Z4	X5	Y5	Z5	X6	Y6	Z6	X7	Y7	Z7	X8	Y8	Z8	X9	Y9	Z9	X10	Y10	Z10	X11	Y11	Z11	X12	Y12	Z12	X13	Y13	Z13	X14	Y14	Z14	X15	Y15	Z15	X16	Y16	Z16	X17	Y17	Z17	X18	Y18	Z18	X19	Y19	Z19	X20	Y20	Z20	X21	Y21	Z21	X22	Y22	Z22	X23	Y23	Z23	X24	Y24	Z24	X25	Y25	Z25	X26	Y26	Z26	X27	Y27	Z27	
230	4.2592592592592595	0.09077548568282376	0.5510221809755018	0.6064367765868925	0.09245417286607471	0.6211756363052154	1.053782824097606	0.0681710310138146	0.6933003641546652	1.4774504271384743	0.057867309143421045	0.4889631118871746	1.4907398256954298	0.12522471223491766	0.4847672219385841	1.4834197697474925	0.041187821537432126	0.7826155344281568	1.5401020345472827	-0.09074812100041141	0.502537980579814	0.5982286970369799	-0.10514729359834006	0.5944748312821072	1.0434422126443896	-0.10980667135522615	0.6497363107569847	1.4531756277148744	-0.09398845057493428	0.4637816997227468	1.4779796920220898	-0.14390693352437284	0.48453667627950747	1.478762522479711	-0.10672846474077514	0.7193521532457527	1.5305932608184198	0.003585288581125871	0.47073791906212065	0.09121617775367206	0.019169521076016244	0.3886927794402764	-0.13157657702668102	0.023870711547255098	0.37040914254411406	-0.005232376392268463	0.15402279333219424	0.45326849033505706	0.15711006125129448	0.19589159937744788	0.339285892107645	0.3633473137755742	0.1554552824641572	0.06356971543783682	0.36691991134052254	0.11217855560034554	-0.049567499461325604	0.3580865695877841	0.11920858405040435	-0.08757081332066063	0.3662397419965697	0.1422912544103381	-0.06122841694472112	0.4021926022750841	-0.14296470778179385	0.4830409040952824	0.16095569535954315	-0.13141777886210143	0.3478737487404216	0.35356581507077733	-0.026762904960732904	0.13952957822263376	0.3899629875838883	0.02333363171247028	0.01758127960428038	0.40592318180667825	0.012724344831176154	-0.0040119351080214385	0.4090428238287096	-0.004563188293928619	0.09501694887759364	0.445320708530597
231	4.277777777777778	0.09058529190782746	0.5511017591235687	0.6063134850362271	0.08485715722095258	0.6053283069926967	1.0487821337245375	0.06814298265336116	0.6932093076988005	1.4774424908690325	0.05782617748083082	0.4885792274416589	1.490605337266362	0.1252287449666673	0.48459631263324315	1.483310741202482	0.04095082133942271	0.7825454947214527	1.540090575231048	-0.09059484613433574	0.5026284793456282	0.5983706981879247	-0.10523591921191916	0.5945608458560774	1.0434009027795992	-0.11072145896716332	0.6498436650146879	1.4576576155605887	-0.0939707370996445	0.4636139801040343	1.478012627002981	-0.14377592910032166	0.48434913064770335	1.4788129364772213	-0.10721769259079453	0.721933766065947	1.5406311883756219	0.003584922945991623	0.47075658929304504	0.09130594782594438	0.019174342309751295	0.3887065109016035	-0.13161737501560736	0.019722842835827398	0.3692835236513128	-0.005119417380792538	0.1538832810889571	0.45300972393180355	0.15710886916315403	0.19579164741573057	0.33849900310593384	0.36733829505310533	0.14759350728671627	0.06139232784019164	0.3505054886268124	0.10671758580519791	-0.03592751609525429	0.33151633758289795	0.12028556799390552	-0.08559391381970675	0.33423501309049997	0.12964005015906166	-0.06312668430888058	0.37680293154260985	-0.14300324718744348	0.48307965287288757	0.16100094547904742	-0.1308087403659843	0.349678957118707	0.3609466744479844	-0.026859755770904263	0.13955012888743212	0.39038154534263897	0.019203136443594834	0.024798101829408756	0.3970810302968655	0.014276153031533418	0.01223586306207997	0.4147626545750238	-0.00438494465450595	0.09464567637797291	0.4455034634138923
232	4.296296296296297	0.08590894989973819	0.5488655459280998	0.6097548224417313	0.08409444452395763	0.6037157625100497	1.0436177612276243	0.06819695765005718	0.693239962765361	1.4774641472533099	0.05572710057634938	0.47812567963001534	1.489731139686217	0.12506217646145348	0.48467936650429055	1.4835912789648669	0.04126780506249145	0.7832467147504294	1.5405473771109828	-0.0859193664299714	0.5032989284255078	0.6028088029181811	-0.105353715592988	0.5943495233476965	1.0433426679672795	-0.11122677212919477	0.6511783366158063	1.4533764253056096	-0.08917814580738533	0.46658194648834456	1.479005603285692	-0.14383914190779581	0.4844076718185935	1.4786750982042762	-0.10562355356137287	0.7334328134693294	1.5430165791696726	0.003570478287801388	0.47059967876081776	0.09138084938367336	0.019119074140243386	0.3887444987710067	-0.13155221922317242	0.019689771734452226	0.3692435199700697	-0.005161934637809312	0.1536691476247861	0.4523796440885189	0.15717600298716242	0.18406394646168323	0.3474524235056025	0.38235161592920214	0.1470330746847538	0.05855894298537056	0.33348604154334305	0.11215190953575938	-0.044683046032843815	0.3021392567492619	0.13107290964345697	-0.08074116778076298	0.3030475127884216	0.11296661515259275	-0.06399721721727115	0.34794556208587996	-0.1408749120536142	0.49563193779929354	0.16152860556436724	-0.13100595525415162	0.34841488478809046	0.35765031311579815	-0.030276570270480883	0.13872326962582363	0.3939834099248196	0.013107032653561031	0.013580276245046086	0.39527971999443084	0.008638080323073494	-0.006388327812244148	0.4121960852580751	-0.008217499979314457	0.07763225499211264	0.44904887286582634
233	4.314814814814815	0.09036911819980359	0.5508490044984997	0.6058301777134661	0.08483266084940422	0.6053097020670052	1.0486547284402334	0.06821678263218518	0.6929752001426793	1.4773930468454528	0.05577540030495649	0.4781456283921863	1.4897519388558456	0.12585395739305122	0.4861998150797493	1.4886746565399913	0.0411955015241643	0.7828954478723947	1.540368295646869	-0.08108418705909343	0.4904301827462565	0.5957498012248545	-0.10535497260847616	0.5944571979827604	1.0435539221734025	-0.11109942090407385	0.6509998841648984	1.4532675819664986	-0.08918232605288867	0.46669897881446315	1.478989180930555	-0.14384159512745756	0.48435678006743366	1.4786264630696428	-0.10706551423345285	0.7221832839289534	1.5403993214087228	0.0034221172422182126	0.46901804344162545	0.08694953620226309	0.019086236681783456	0.3889126993130613	-0.13157332198501112	0.01966991162754796	0.36980651280086946	-0.00819732974505109	0.14978099298353756	0.45037687726424847	0.15694546552044733	0.19456387079250437	0.33541643757062545	0.3607753660860234	0.1417422366636805	0.05078697942385488	0.29180970693073127	0.09492505070236328	-0.03818477813367954	0.2408930168292553	0.08932544483680127	-0.026357085904551287	0.2545575161866439	0.09586711268793269	-0.03676348025453644	0.2838299452878822	-0.14081430572768103	0.4958428953153192	0.16153597678444528	-0.1302597873428188	0.374612872021864	0.35815991908066314	-0.03233809845577657	0.16096443678266018	0.4049344554418073	0.005375544204320038	0.025372491999241725	0.399838475503708	0.010885692839370976	0.0034411105284659913	0.4133026398343347	-0.0059864210810296825	0.08648361318548899	0.4445527149446281
234	4.333333333333333	0.09048654451957425	0.5511452221813788	0.5978785536219997	0.08906069285750186	0.6187836993262077	1.0481212248114358	0.06817413729772444	0.6931165425739341	1.4774318919631524	0.058727938767494	0.4911951407344861	1.4962227453170338	0.1258881901523767	0.4863663356239452	1.488772425790059	0.04126816876318506	0.7826989867717457	1.540241233527592	-0.08131689578663638	0.48988550147535653	0.5951044395870997	-0.10538046180566343	0.5944097251073638	1.0434961830811997	-0.11073376742481847	0.6499070766339706	1.457579953701873	-0.08910026720663056	0.46721186335115844	1.4791083266481224	-0.14382340693685777	0.4843869980116329	1.4785361035530893	-0.10783036152824123	0.7199166895636488	1.5364207059949329	0.0037499013343680596	0.47044331746538914	0.08785646252188703	0.019119831124649142	0.3891786176430974	-0.12814978528996934	0.01958622928050796	0.37006968525371076	-0.008246799805199401	0.14985792581634716	0.45054271771197674	0.15690903167538287	0.19775090160207826	0.3360676662227083	0.3524702016095211	0.13992984449117543	0.04762782680487915	0.2653406294465168	0.09441369558090665	-0.03649229398359385	0.21337959706251203	0.09884449726046467	-0.06601154561946883	0.2238721956419907	0.09661194508242577	-0.04886583113194725	0.26003373073649017	-0.14071897055174173	0.496415397440728	0.16156338370303863	-0.1322033393068782	0.36447233736306545	0.35998572817197483	-0.03580020174358263	0.15978163718206648	0.4051344159603458	0.0095013725664264	0.05295490672776607	0.40771443615605674	0.01617712712195388	0.022312558126669012	0.4163439090927732	-0.010350355572058417	0.09663782498675044	0.4439099651964815
235	4.351851851851852	0.09013966783765268	0.5494085153345623	0.59341456645761	0.08835183283483128	0.6171955842354137	1.0428674949298644	0.06817327454881551	0.6928027837470448	1.4772433612483322	0.05873249124813966	0.49127214050920426	1.4962699877240475	0.12502332221554177	0.4844060400464105	1.4835963495229922	0.03778165925555428	0.7672165447517971	1.5330652288644677	-0.0807580329326744	0.4899430015057569	0.5917820928671941	-0.10522212414795334	0.5943476005373205	1.0433067176294761	-0.11117413708888474	0.6508175490020128	1.4530549430842492	-0.08906124356506444	0.4669438579706556	1.4790824821579782	-0.1438580160902841	0.4843936557238881	1.478629591511677	-0.10662973933348831	0.7190465801402829	1.5303185005237077	0.0038088826989668145	0.4704980245783528	0.08788544063216762	0.019047608352830883	0.3893666717531911	-0.12808481386259457	0.015438509142281658	0.38212353852211756	-0.01104084297797257	0.1498453095681356	0.4507773058761554	0.1569091041693909	0.193450303063707	0.32292482067154593	0.3356124121082005	0.1399522901063459	0.04595799400921909	0.25080325466155207	0.09003337443777104	-0.04560003603355947	0.20036074082365105	0.09345785917448665	-0.056347214086426095	0.20231602665919862	0.09839502405180212	-0.06887183424936846	0.23539223093456912	-0.14063779650600003	0.49641198094744843	0.16147926694444073	-0.13244545445749012	0.36298005830554936	0.3564541529927037	-0.03641353006138723	0.16031893593208282	0.40842375977339135	0.008626470251451055	0.06478270252024862	0.4163373424538157	0.009825494439623128	0.022834728692117556	0.4199210836716394	-0.014892570075063156	0.07924940266414646	0.4411651595855664
